<svg xmlns="http://www.w3.org/2000/svg" viewBox="0 0 800 500" width="800" height="500" role="img" aria-label="Envelopes screenshot placeholder">
  <rect width="800" height="500" rx="12" fill="#0f2321"/>
  <text x="40" y="60" font-family="system-ui, sans-serif" font-size="14" fill="#7dd3c0" letter-spacing="2">ENVELOPPES · JUILLET 2026</text>
  <g transform="translate(40 96)">
    <rect width="720" height="80" rx="8" fill="#194f48"/>
    <text x="24" y="30" font-family="system-ui, sans-serif" font-size="12" fill="#aee2cb" letter-spacing="1">À BUDGÉTISER</text>
    <text x="24" y="66" font-family="Georgia, serif" font-size="32" fill="#eef9f4">1 240,00 €</text>
    <rect x="500" y="34" width="200" height="30" rx="6" fill="#7dd3c0"/>
    <text x="600" y="53" font-family="system-ui, sans-serif" font-size="12" fill="#0f2321" font-weight="600" text-anchor="middle">Répartir 1 240 € sur les objectifs</text>
  </g>
  <g font-family="system-ui, sans-serif" font-size="13" fill="#eef9f4">
    <g transform="translate(40 210)">
      <rect width="720" height="60" rx="6" fill="#16413b"/>
      <text x="20" y="28">Impôts</text>
      <text x="20" y="48" fill="#7dd3c0" font-size="11">Objectif: 1 300,00 € d'ici 2026-09-01</text>
      <rect x="240" y="22" width="200" height="4" rx="2" fill="#0f2321"/>
      <rect x="240" y="22" width="65" height="4" rx="2" fill="#7dd3c0"/>
      <text x="700" y="35" text-anchor="end">433,33 €</text>
    </g>
    <g transform="translate(40 285)">
      <rect width="720" height="60" rx="6" fill="#16413b"/>
      <text x="20" y="28">Courses</text>
      <text x="20" y="48" fill="#7dd3c0" font-size="11">Objectif: 400 €/mois</text>
      <rect x="240" y="22" width="200" height="4" rx="2" fill="#0f2321"/>
      <rect x="240" y="22" width="180" height="4" rx="2" fill="#7dd3c0"/>
      <text x="700" y="35" text-anchor="end">400,00 €</text>
    </g>
    <g transform="translate(40 360)">
      <rect width="720" height="60" rx="6" fill="#16413b"/>
      <text x="20" y="28">Transport</text>
      <text x="20" y="48" fill="#7dd3c0" font-size="11">Objectif: 120 €/mois</text>
      <rect x="240" y="22" width="200" height="4" rx="2" fill="#0f2321"/>
      <rect x="240" y="22" width="140" height="4" rx="2" fill="#7dd3c0"/>
      <text x="700" y="35" text-anchor="end">120,00 €</text>
    </g>
  </g>
  <text x="400" y="470" text-anchor="middle" font-family="system-ui, sans-serif" font-size="11" fill="#7dd3c0" opacity="0.5">screenshot placeholder — replace static/img/screenshots/envelopes.png</text>
</svg>
